<svg width="34" height="34" viewBox="0 0 34 34" fill="none" xmlns="http://www.w3.org/2000/svg">
<path fill-rule="evenodd" clip-rule="evenodd" d="M17 0.5C7.88708 0.5 0.5 7.88708 0.5 17C0.5 26.1129 7.88708 33.5 17 33.5C26.1129 33.5 33.5 26.1129 33.5 17C33.5 7.88708 26.1129 0.5 17 0.5ZM3.5 17C3.5 9.54392 9.54392 3.5 17 3.5C24.456 3.5 30.5 9.54392 30.5 17C30.5 24.456 24.456 30.5 17 30.5C9.54392 30.5 3.5 24.456 3.5 17ZM18.5 8C18.5 7.17158 17.8284 6.5 17 6.5C16.1715 6.5 15.5 7.17158 15.5 8V17C15.5 17.5682 15.821 18.0875 16.3292 18.3416L22.3292 21.3416C23.0702 21.7121 23.9711 21.4118 24.3416 20.6708C24.7121 19.9298 24.4118 19.0289 23.6708 18.6584L18.5 16.073V8Z" fill="#8988C4"/>
</svg>
